<svg id="Capa_1" enable-background="new 0 0 512 512" height="512" viewBox="0 0 512 512" width="512" xmlns="http://www.w3.org/2000/svg"><path d="m376.901 336.899-39.985 15h-80.916-87.36l-33.84-15c-25.801 11.701-43.8 37.801-43.8 68.101v107h60l30-32h75 75l30 32h60v-107c0-30.3-18.3-56.7-44.099-68.101z" fill="#ff637b"/><path d="m361 512h60v-107c0-30.3-18.3-56.7-44.099-68.101l-39.985 15h-80.916v128.101h75z" fill="#e63950"/><path d="m346 330c-8.877 0-15-6.788-15-15v-48.6h-75-75v48.6c0 8.357-6.819 15-15 15-11.1 0-21.599 2.401-31.199 6.899 34.499 33.901 77.1 53.101 121.199 53.101 43.5 0 86.4-19.2 120.901-53.101-9.6-4.498-19.801-6.899-30.901-6.899z" fill="#596c76"/><path d="m346 330c-8.877 0-15-6.788-15-15v-48.6h-75v123.6c43.5 0 86.4-19.2 120.901-53.101-9.6-4.498-19.801-6.899-30.901-6.899z" fill="#465a61"/><path d="m256 420h-105v92h105 105v-92z" fill="#596c76"/><path d="m256 420h105v92h-105z" fill="#465a61"/><path d="m383.908 90-41.453-30h-86.455-96.866l-31.042 30c-4.517 17.512-7.092 37.249-7.092 60 0 20.83 3.127 41.023 8.525 60l40.02 30h86.455 86.455l40.02-30c5.398-18.977 8.525-39.17 8.525-60 0-22.751-2.574-42.488-7.092-60z" fill="#76e2f8"/><path d="m382.475 210c5.398-18.977 8.525-39.17 8.525-60 0-22.751-2.574-42.488-7.092-60l-41.453-30h-86.455v180h86.455z" fill="#4bb9ec"/><path d="m128.092 90h82.908l30-42.433-30-42.433c-43.601 10.783-71.054 38.899-82.908 84.866z" fill="#e63950"/><path d="m383.908 90c-11.854-45.967-39.307-74.083-82.908-84.866l-30 42.433 30 42.433z" fill="#cd0000"/><path d="m256 0c-16.615 0-31.52 1.802-45 5.134v84.866h45 45v-84.866c-13.48-3.332-28.385-5.134-45-5.134z" fill="#ff637b"/><path d="m301 5.134c-13.48-3.332-28.385-5.134-45-5.134v90h45z" fill="#e63950"/><path d="m256 210h-126.475c19.452 68.383 70.187 120 126.475 120s107.023-51.617 126.475-120z" fill="#ff637b"/><path d="m382.475 210h-126.475v120c56.288 0 107.023-51.617 126.475-120z" fill="#e63950"/></svg>